<?xml version="1.0" encoding="UTF-8" standalone="no"?>
<!DOCTYPE svg PUBLIC "-//W3C//DTD SVG 1.1//EN" "http://www.w3.org/Graphics/SVG/1.1/DTD/svg11.dtd">
<svg version="1.1" xmlns="http://www.w3.org/2000/svg" xmlns:xlink="http://www.w3.org/1999/xlink" preserveAspectRatio="xMidYMid meet" viewBox="0 0 640 640" width="64" height="64"><defs><path d="M429.96 53.4L433.23 53.6L436.46 53.93L439.64 54.38L442.79 54.96L445.89 55.66L448.95 56.48L451.95 57.41L454.91 58.46L457.81 59.62L460.65 60.89L463.43 62.26L466.15 63.74L468.81 65.32L471.4 67L473.91 68.77L476.36 70.63L478.73 72.59L481.02 74.64L483.24 76.76L485.36 78.98L487.41 81.27L489.37 83.64L491.23 86.09L493 88.6L494.68 91.19L496.26 93.85L497.74 96.57L499.11 99.35L500.38 102.19L501.54 105.09L502.59 108.05L503.52 111.05L504.34 114.11L505.04 117.21L505.62 120.36L506.07 123.54L506.4 126.77L506.6 130.04L506.67 133.33L506.67 560L506.66 560.72L506.63 561.43L506.59 562.14L506.53 562.84L506.44 563.55L506.34 564.24L506.23 564.94L506.09 565.63L505.94 566.31L505.76 566.99L505.58 567.66L505.37 568.33L505.15 568.98L504.91 569.64L504.65 570.28L504.38 570.92L504.09 571.55L503.78 572.17L503.46 572.79L503.12 573.39L502.77 573.99L502.4 574.58L502.01 575.15L501.62 575.72L501.2 576.28L500.77 576.83L500.33 577.36L499.87 577.89L499.4 578.4L498.92 578.9L498.42 579.39L497.9 579.87L497.38 580.33L496.84 580.78L496.29 581.22L495.72 581.65L495.14 582.06L494.55 582.45L493.95 582.83L493.33 583.2L493.03 583.37L492.72 583.54L492.41 583.7L492.1 583.86L491.79 584.01L491.47 584.16L491.15 584.31L490.83 584.45L490.51 584.59L490.19 584.72L489.87 584.85L489.54 584.97L489.22 585.09L488.89 585.21L488.56 585.32L488.23 585.42L487.9 585.53L487.56 585.63L487.23 585.72L486.89 585.81L486.56 585.89L486.22 585.98L485.88 586.05L485.54 586.12L485.2 586.19L484.86 586.25L484.52 586.31L484.17 586.37L483.83 586.42L483.48 586.46L483.14 586.5L482.79 586.54L482.44 586.57L482.1 586.6L481.75 586.62L481.4 586.64L481.05 586.65L480.7 586.66L480.35 586.67L480 586.67L479.65 586.67L479.3 586.66L478.95 586.65L478.6 586.64L478.25 586.62L477.9 586.6L477.56 586.57L477.21 586.54L476.86 586.5L476.52 586.46L476.17 586.42L475.83 586.37L475.48 586.31L475.14 586.25L474.8 586.19L474.46 586.12L474.12 586.05L473.78 585.98L473.44 585.89L473.11 585.81L472.77 585.72L472.44 585.63L472.1 585.53L471.77 585.42L471.44 585.32L471.11 585.21L470.78 585.09L470.46 584.97L470.13 584.85L469.81 584.72L469.49 584.59L469.17 584.45L468.85 584.31L468.53 584.16L468.21 584.01L467.9 583.86L467.59 583.7L467.28 583.54L466.97 583.37L466.67 583.2L459.63 579.13L454.13 575.95L447.31 572.01L439.17 567.3L433.01 563.74L429.71 561.83L422.67 557.76L418.93 555.6L411.01 551.02L406.83 548.6L398.03 543.51L383.73 535.25L362.61 523.03L345.23 512.99L332.91 505.86L320 498.4L294.77 512.99L288.83 516.42L277.39 523.03L271.89 526.21L261.33 532.32L256.27 535.25L241.97 543.51L221.07 555.6L206.99 563.74L197.97 568.95L192.69 572.01L183.89 577.09L175.09 582.18L173.33 583.2L172.71 583.55L172.08 583.88L171.45 584.19L170.8 584.49L170.16 584.76L169.5 585.02L168.85 585.26L168.18 585.49L167.52 585.69L166.85 585.88L166.17 586.05L165.49 586.2L164.81 586.34L164.13 586.45L163.45 586.55L162.76 586.63L162.07 586.69L161.38 586.74L160.69 586.76L160 586.77L159.31 586.76L158.62 586.74L157.93 586.69L157.24 586.63L156.55 586.55L155.87 586.45L155.19 586.34L154.51 586.2L153.83 586.05L153.15 585.88L152.48 585.69L151.82 585.49L151.15 585.26L150.5 585.02L149.84 584.76L149.2 584.49L148.55 584.19L147.92 583.88L147.29 583.55L146.67 583.2L146.05 582.83L145.45 582.45L144.86 582.06L144.28 581.65L143.71 581.22L143.16 580.78L142.62 580.33L142.1 579.87L141.58 579.39L141.08 578.9L140.6 578.4L140.13 577.89L139.67 577.36L139.23 576.83L138.8 576.28L138.38 575.72L137.99 575.15L137.6 574.58L137.23 573.99L136.88 573.39L136.54 572.79L136.22 572.17L135.91 571.55L135.62 570.92L135.35 570.28L135.09 569.64L134.85 568.98L134.63 568.33L134.42 567.66L134.24 566.99L134.06 566.31L133.91 565.63L133.77 564.94L133.66 564.24L133.56 563.55L133.47 562.84L133.41 562.14L133.37 561.43L133.34 560.72L133.33 560L133.33 133.33L133.4 130.04L133.6 126.77L133.93 123.54L134.38 120.36L134.96 117.21L135.66 114.11L136.48 111.05L137.41 108.05L138.46 105.09L139.62 102.19L140.89 99.35L142.26 96.57L143.74 93.85L145.32 91.19L147 88.6L148.77 86.09L150.63 83.64L152.59 81.27L154.64 78.98L156.76 76.76L158.98 74.64L161.27 72.59L163.64 70.63L166.09 68.77L168.6 67L171.19 65.32L173.85 63.74L176.57 62.26L179.35 60.89L182.19 59.62L185.09 58.46L188.05 57.41L191.05 56.48L194.11 55.66L197.21 54.96L200.36 54.38L203.54 53.93L206.77 53.6L210.04 53.4L213.33 53.33L426.67 53.33L429.96 53.4Z" id="bSK4DBm8c"></path></defs><g><g><g><use xlink:href="#bSK4DBm8c" opacity="1" fill="#000000" fill-opacity="1"></use><g><use xlink:href="#bSK4DBm8c" opacity="1" fill-opacity="0" stroke="#000000" stroke-width="1" stroke-opacity="0"></use></g></g></g></g></svg>