<svg id="Capa_1" enable-background="new 0 0 443.294 443.294" height="512" viewBox="0 0 443.294 443.294" width="512" xmlns="http://www.w3.org/2000/svg"><path d="m235.499 138.529h-27.706v88.854l45.563 45.563 19.589-19.589-37.446-37.446z"/><path d="m342.54 107.895-24.342-97.397c-1.542-6.169-7.075-10.498-13.433-10.498h-166.236c-6.358 0-11.891 4.329-13.434 10.498l-24.342 97.397c-28.027 29.769-45.342 69.733-45.342 113.752s17.314 83.983 45.342 113.752l24.342 97.397c1.542 6.169 7.075 10.498 13.434 10.498h166.235c6.358 0 11.891-4.329 13.434-10.498l24.342-97.397c28.027-29.769 45.342-69.733 45.342-113.752s-17.314-83.984-45.342-113.752zm-193.188-80.189h144.59l12.864 51.438c-24.944-14.964-54.012-23.732-85.159-23.732s-60.214 8.768-85.159 23.732c0 0 12.864-51.438 12.864-51.438zm144.59 387.882h-144.59l-12.864-51.438c24.944 14.964 54.011 23.732 85.159 23.732s60.214-8.768 85.159-23.732c0 0-12.864 51.438-12.864 51.438zm-72.295-55.412c-76.381 0-138.529-62.149-138.529-138.529s62.148-138.529 138.529-138.529 138.529 62.149 138.529 138.529-62.149 138.529-138.529 138.529z"/></svg>